<svg width="32" height="32" viewBox="0 0 32 32" fill="none" xmlns="http://www.w3.org/2000/svg">
<path d="M18.4641 28.2363H19.1017C23.2966 28.2363 26.6972 24.8357 26.6972 20.6408V14.459C26.6972 8.55105 21.9079 3.76172 16 3.76172C10.092 3.76172 5.30268 8.55105 5.30268 14.459V20.4328H4.90606C2.91465 20.4328 1.30029 18.8185 1.30029 16.8271C1.30029 14.8357 2.91465 13.2213 4.90606 13.2213H5.30268M26.6974 20.4327H27.094C29.0854 20.4327 30.6997 18.8183 30.6997 16.8269C30.6997 14.8355 29.0854 13.2212 27.094 13.2212H26.6974M11.4304 12.3302V14.5883M20.3861 12.3302V14.5883M14.7248 17.5327H15.2925C15.724 17.5327 16.0737 17.183 16.0737 16.7516L16.0741 13.4594M11.2423 19.7047C13.4567 22.8682 18.1418 22.8682 20.3562 19.7047" stroke="white" stroke-width="2.5" stroke-linecap="round"/>
</svg>
