<svg width="180" height="35" viewBox="0 0 180 35" fill="none" xmlns="http://www.w3.org/2000/svg">
<path d="M8.05075 32.0452C8.05075 31.4693 7.87521 27.1631 7.87521 24.8347V13.1427C7.87521 9.91304 8.07582 5.55664 8.07582 5.55664H4.69002C4.69002 5.55664 4.91573 9.91304 4.91573 13.1427V24.8347C4.91573 27.138 4.76527 31.3441 4.74019 32.0201C2.85918 32.0201 1.6553 31.9951 1.6553 31.9951L0 34.9994C0 34.9994 15.9009 34.9244 21.6944 34.9244C27.4879 34.9244 41.2569 34.9994 41.2569 34.9994L41.909 31.9951C41.909 31.9951 26.3593 32.1204 21.6944 32.1204C19.0359 32.1204 12.8661 32.1203 8.07582 32.0452" fill="#DE6328"/>
<path d="M17.4325 24.5115C17.4325 27.0902 19.6897 29.4437 23.4016 29.4437H32.1546C32.1546 29.4437 31.8787 25.9886 31.8787 22.784V13.2952C31.8787 10.0906 32.1546 5.70914 32.1546 5.70914H28.5932C28.5932 5.70914 28.8691 10.0655 28.8691 13.2952V22.5337C28.8691 24.3363 28.7938 25.3128 28.7687 26.6647H23.8781C21.6209 26.6647 20.4171 25.7883 20.4171 24.5115C20.4171 22.4084 23.1759 22.0329 24.6807 22.0329C25.7842 22.0329 26.963 22.2082 26.963 22.2082V19.1538C26.963 19.1538 26.2607 19.1037 25.1071 18.2024L21.019 15.3984C23.3264 14.9477 25.2325 12.9448 25.2325 10.5162C25.2325 7.91245 22.9752 5.58398 19.2884 5.58398H10.5605C10.5605 5.58398 10.8364 8.98899 10.8364 12.2187V21.7325C10.8364 24.9371 10.5605 29.3186 10.5605 29.3186H14.1219C14.1219 29.3186 13.846 24.9371 13.846 21.7325V12.494C13.846 10.6914 13.9213 9.74014 13.9715 8.36314H18.8621C21.1444 8.36314 22.3482 9.23938 22.3482 10.5162C22.3482 12.6193 19.5894 12.9697 18.0846 12.9697C16.9811 12.9697 15.8274 12.8195 15.8274 12.8195V15.899C15.8274 15.899 16.5296 15.8989 17.6833 16.8253L21.7714 19.6295C19.464 20.0802 17.5328 22.108 17.5328 24.5365" fill="#DE6328"/>
<path d="M34.5623 2.95427C34.5873 3.55515 34.7378 7.83638 34.7378 10.1648V21.8567C34.7378 25.0614 34.5372 29.4177 34.5372 29.4177H37.9481C37.9481 29.4177 37.7474 25.0614 37.7474 21.8567V10.1648C37.7474 7.86142 37.8728 3.63028 37.8979 2.97934C39.7538 2.97934 40.9828 2.97934 40.9828 2.97934L42.638 0C42.638 0 26.7623 0.0750297 20.9688 0.0750297C15.1752 0.0750297 1.40626 0 1.40626 0L0.75415 2.97934C0.75415 2.97934 16.3289 2.85418 20.9688 2.85418C23.6273 2.85418 29.797 2.92921 34.5623 2.92921" fill="#DE6328"/>
<path d="M123.325 14.0946V24.9354L109.606 4.90625H104.113C104.113 4.90625 104.69 6.05794 104.69 9.6131V21.9809C104.69 26.7378 104.113 30.4934 104.113 30.4934H107.976C107.976 30.4934 107.725 28.6656 107.725 21.9809V9.28762L122.397 30.4183V30.4934H126.284V14.0946C126.284 8.36123 126.736 4.90625 126.736 4.90625H122.923C122.923 4.90625 123.325 9.26254 123.325 14.0946Z" fill="#4B3536"/>
<path d="M92.4719 17.5996C90.7665 13.1932 88.0578 4.90625 88.0578 4.90625H82.164C82.164 4.90625 82.2392 5.85757 81.7125 7.66019C79.5055 14.9458 72.5332 30.4934 72.5332 30.4934H76.5962V30.3682C76.7968 29.3667 78.1762 25.5361 79.7312 21.355H89.2617L92.8732 30.4934H98.14C98.14 30.4934 95.5066 25.3108 92.497 17.5996M80.7093 18.6763C82.4148 14.1697 84.045 9.9636 84.371 9.1374L88.1581 18.6763H80.7344H80.7093Z" fill="#4B3536"/>
<path d="M132.475 8.06071C132.475 8.06071 133.929 7.58501 135.284 7.58501H141.503V18.9516C141.503 25.6113 141.052 30.4934 141.052 30.4934H145.993C145.993 30.4934 145.742 25.6113 145.742 18.9516V7.58501H153.065C153.442 7.58501 154.696 4.90625 154.696 4.90625H133.077L132.475 8.06071Z" fill="#4B3536"/>
<path d="M158.356 4.90787L157.779 8.06233L157.955 7.9873C157.955 7.9873 159.209 7.58663 160.563 7.58663H166.758V18.9532C166.758 25.6129 166.332 30.2947 166.332 30.3197V30.4699H166.658H171.272V30.3197C171.272 30.3197 171.022 25.5879 171.022 18.9282V7.56172H178.345C178.721 7.56172 179.499 5.98443 179.925 5.05809L180 4.88281H158.381L158.356 4.90787Z" fill="#4B3536"/>
<path d="M56.2298 16.348V18.9519L64.4059 30.4686H69.3717C69.3717 30.4686 67.8168 28.6409 66.7634 27.0386L60.7693 18.7766C64.0297 18.4011 66.8387 15.2215 66.8387 11.3158C66.8387 8.03607 64.1802 4.50586 58.2612 4.50586H50.035C50.035 4.50586 50.3108 5.48236 50.3108 9.9138V21.9312C50.3108 26.0122 49.8594 30.4435 49.8594 30.4435H54.9758C54.9758 30.4435 54.5744 25.7868 54.5494 22.1565V7.13465H57.1577C60.3178 7.13465 62.9512 8.41149 62.8008 11.8164C62.6754 14.3952 60.9197 16.348 57.1075 16.348C56.6812 16.348 56.6812 16.3481 56.2298 16.273" fill="#4B3536"/>
</svg>
